HIERARCHY
ROOT Hips
{
  OFFSET 0.379263 16.6519 0.216258
  CHANNELS 6 Xposition Yposition Zposition Zrotation Xrotation Yrotation
  JOINT LHipJoint
  {
    OFFSET 0 0 0
    CHANNELS 6 Xposition Yposition Zposition Zrotation Xrotation Yrotation
    JOINT LeftUpLeg
    {
      OFFSET 1.36306 -1.79463 0.83929
      CHANNELS 6 Xposition Yposition Zposition Zrotation Xrotation Yrotation
      JOINT LeftLeg
      {
        OFFSET 2.44811 -6.72613 0
        CHANNELS 6 Xposition Yposition Zposition Zrotation Xrotation Yrotation
        JOINT LeftFoot
        {
          OFFSET 2.5622 -7.03959 0
          CHANNELS 6 Xposition Yposition Zposition Zrotation Xrotation Yrotation
          JOINT LeftToeBase
          {
            OFFSET 0.15764 -0.43311 2.32255
            CHANNELS 6 Xposition Yposition Zposition Zrotation Xrotation Yrotation
            End Site
            {
              OFFSET 0 0 0
            }
          }
        }
      }
    }
  }
  JOINT RHipJoint
  {
    OFFSET 0 0 0
    CHANNELS 6 Xposition Yposition Zposition Zrotation Xrotation Yrotation
    JOINT RightUpLeg
    {
      OFFSET -1.30552 -1.79463 0.83929
      CHANNELS 6 Xposition Yposition Zposition Zrotation Xrotation Yrotation
      JOINT RightLeg
      {
        OFFSET -2.54253 -6.98555 0
        CHANNELS 6 Xposition Yposition Zposition Zrotation Xrotation Yrotation
        JOINT RightFoot
        {
          OFFSET -2.56826 -7.05623 0
          CHANNELS 6 Xposition Yposition Zposition Zrotation Xrotation Yrotation
          JOINT RightToeBase
          {
            OFFSET -0.16473 -0.45259 2.36315
            CHANNELS 6 Xposition Yposition Zposition Zrotation Xrotation Yrotation
            End Site
            {
              OFFSET 0 0 0
            }
          }
        }
      }
    }
  }
  JOINT LowerBack
  {
    OFFSET 0 0 0
    CHANNELS 6 Xposition Yposition Zposition Zrotation Xrotation Yrotation
    JOINT Spine
    {
      OFFSET 0.02827 2.03559 -0.19338
      CHANNELS 6 Xposition Yposition Zposition Zrotation Xrotation Yrotation
      JOINT Spine1
      {
        OFFSET 0.05672 2.04885 -0.04275
        CHANNELS 6 Xposition Yposition Zposition Zrotation Xrotation Yrotation
        JOINT Neck
        {
          OFFSET 0 0 0
          CHANNELS 6 Xposition Yposition Zposition Zrotation Xrotation Yrotation
          JOINT Neck1
          {
            OFFSET -0.05417 1.74624 0.17202
            CHANNELS 6 Xposition Yposition Zposition Zrotation Xrotation Yrotation
            JOINT Head
            {
              OFFSET 0.10407 1.76136 -0.12397
              CHANNELS 6 Xposition Yposition Zposition Zrotation Xrotation Yrotation
              End Site
              {
                OFFSET 0 0 0
              }
            }
          }
        }
        JOINT LeftShoulder
        {
          OFFSET 0 0 0
          CHANNELS 6 Xposition Yposition Zposition Zrotation Xrotation Yrotation
          JOINT LeftArm
          {
            OFFSET 3.36241 1.20089 -0.31121
            CHANNELS 6 Xposition Yposition Zposition Zrotation Xrotation Yrotation
            JOINT LeftForeArm
            {
              OFFSET 4.983 0 0
              CHANNELS 6 Xposition Yposition Zposition Zrotation Xrotation Yrotation
              JOINT LeftHand
              {
                OFFSET 3.48356 0 0
                CHANNELS 6 Xposition Yposition Zposition Zrotation Xrotation Yrotation
                JOINT LeftFingerBase
                {
                  OFFSET 0 0 0
                  CHANNELS 6 Xposition Yposition Zposition Zrotation Xrotation Yrotation
                  JOINT LeftHandIndex1
                  {
                    OFFSET 0.71526 0 0
                    CHANNELS 6 Xposition Yposition Zposition Zrotation Xrotation Yrotation
                    End Site
                    {
                      OFFSET 0 0 0
                    }
                  }
                }
                JOINT LThumb
                {
                  OFFSET 0 0 0
                  CHANNELS 6 Xposition Yposition Zposition Zrotation Xrotation Yrotation
                  End Site
                  {
                    OFFSET 0 0 0
                  }
                }
              }
            }
          }
        }
        JOINT RightShoulder
        {
          OFFSET 0 0 0
          CHANNELS 6 Xposition Yposition Zposition Zrotation Xrotation Yrotation
          JOINT RightArm
          {
            OFFSET -3.1366 1.37405 -0.40465
            CHANNELS 6 Xposition Yposition Zposition Zrotation Xrotation Yrotation
            JOINT RightForeArm
            {
              OFFSET -5.2419 0 0
              CHANNELS 6 Xposition Yposition Zposition Zrotation Xrotation Yrotation
              JOINT RightHand
              {
                OFFSET -3.44417 0 0
                CHANNELS 6 Xposition Yposition Zposition Zrotation Xrotation Yrotation
                JOINT RightFingerBase
                {
                  OFFSET 0 0 0
                  CHANNELS 6 Xposition Yposition Zposition Zrotation Xrotation Yrotation
                  JOINT RightHandIndex1
                  {
                    OFFSET -0.62253 0 0
                    CHANNELS 6 Xposition Yposition Zposition Zrotation Xrotation Yrotation
                    End Site
                    {
                      OFFSET 0 0 0
                    }
                  }
                }
                JOINT RThumb
                {
                  OFFSET 0 0 0
                  CHANNELS 6 Xposition Yposition Zposition Zrotation Xrotation Yrotation
                  End Site
                  {
                    OFFSET 0 0 0
                  }
                }
              }
            }
          }
        }
      }
    }
  }
}
MOTION
Frames:	8
Frame Time:	0.00833333
0.167662 16.6853 0.0326439 -0.0111396 8.63947 -1.34464 0 0 0 -0.299681 5.35791 18.0368 1.36306 -1.79463 0.83929 -19.81 -46.5209 3.92631 2.44811 -6.72613 -1.77636e-015 11.443 40.7112 6.65488 2.5622 -7.03959 4.44089e-016 1.10497 -5.12956 -5.76027 0.15764 -0.43311 2.32255 1.39149e-015 5.96354e-016 -0 0 0 0 -8.85582 0.425549 -20.6242 -1.30552 -1.79463 0.83929 49.5469 -26.2659 22.7275 -2.54253 -6.98555 0 -8.30162 54.8207 -13.4222 -2.56826 -7.05623 -2.77556e-016 2.38564 -2.9725 7.00156 -0.16473 -0.45259 2.36315 0.00606296 0.00719137 -0.00231567 0 0 0 -1.93281 -2.12354 0.12108 0.02827 2.03559 -0.19338 10.205 19.9351 0.293657 0.05672 2.04885 -0.04275 -2.85168 -5.16845 0.553862 0 0 0 -1.00718 -9.92052 -0.0272236 -0.05417 1.74624 0.17202 2.43773 26.9011 -1.27782 0.10407 1.76136 -0.12397 0.0468547 0.00650896 -0.0245101 0 0 0 20.1572 -4.68218 25.684 3.36241 1.20089 -0.31121 -93.0623 10.168 -4.11835 4.983 1.77636e-015 0 -16.8868 14.0264 -32.5433 3.48356 -8.88178e-016 0 -3.22629 -1.05565 2.4891 0 0 0 -0.121028 -1.13371e-006 -1.14814 0.71526 8.88178e-016 0 -8.82781e-032 7.95139e-016 6.36111e-015 0 0 0 -8.82781e-032 -7.95139e-016 -6.36111e-015 0 0 0 -28.1684 -5.05799 -32.5015 -3.1366 1.37405 -0.40465 107.254 2.51612 6.13459 -5.2419 0 2.22045e-016 7.56865 17.7899 2.16148 -3.44417 -8.88178e-016 0 7.77686 1.58783 7.7842 0 0 0 0.388195 -3.8339e-006 2.4941 -0.62253 0 -4.44089e-016 -4.17485e-006 2.99803e-006 3.04112e-006 0 0 0 1.49089e-015 0 -3.18055e-015 
0.167948 16.6855 0.0225522 -0.0228471 8.61968 -1.38899 0 0 0 -0.299681 5.35791 18.0368 1.36306 -1.79463 0.83929 -19.7961 -46.5311 3.92367 2.44811 -6.72613 0 11.4525 40.6914 6.68627 2.5622 -7.03959 0 1.10677 -5.09434 -5.74792 0.15764 -0.43311 2.32255 -1.98785e-015 -2.98177e-015 -0 0 0 0 -8.85582 0.425549 -20.6242 -1.30552 -1.79463 0.83929 49.5784 -26.2699 22.7362 -2.54253 -6.98555 -8.88178e-016 -8.30537 54.8171 -13.3785 -2.56826 -7.05623 -6.66134e-016 2.35596 -2.92552 6.9802 -0.16473 -0.45259 2.36315 0.00606296 0.00719137 -0.00231567 0 0 0 -1.93281 -2.12354 0.12108 0.02827 2.03559 -0.19338 10.2094 19.836 0.322437 0.05672 2.04885 -0.04275 -2.87289 -5.1776 0.569275 0 0 0 -1.02246 -9.93037 -0.0217866 -0.05417 1.74624 0.17202 2.41838 26.8916 -1.26831 0.10407 1.76136 -0.12397 0.0877936 0.0981883 -0.0163654 0 0 0 20.1492 -4.72005 25.7222 3.36241 1.20089 -0.31121 -93.0432 10.1349 -3.91267 4.983 0 0 -16.8299 14.1736 -32.6087 3.48356 -8.88178e-016 0 -3.18107 -1.0694 2.5485 0 0 0 -0.121028 -1.13371e-006 -1.14814 0.71526 -1.77636e-015 8.88178e-016 7.95139e-016 1.19271e-015 -0 0 0 0 -3.97569e-016 7.95139e-016 -0 0 0 0 -28.2894 -5.12475 -32.4748 -3.1366 1.37405 -0.40465 107.236 2.39745 5.92231 -5.2419 0 0 7.56868 17.8044 2.15739 -3.44417 -4.44089e-016 2.22045e-016 7.80207 1.58783 7.78489 0 0 0 0.388195 -3.8339e-006 2.4941 -0.62253 0 -4.44089e-016 -4.17485e-006 2.99803e-006 3.04112e-006 0 0 0 1.39149e-015 7.95139e-016 -1.59028e-015 
0.168257 16.6858 0.0125671 -0.0343873 8.60229 -1.43317 0 0 0 -0.299681 5.35791 18.0368 1.36306 -1.79463 0.83929 -19.784 -46.5428 3.91962 2.44811 -6.72613 -1.77636e-015 11.4618 40.6709 6.71785 2.5622 -7.03959 -4.44089e-016 1.10869 -5.05899 -5.73553 0.15764 -0.43311 2.32255 -4.96962e-016 1.98785e-016 -2.22639e-014 0 0 0 -8.85582 0.425549 -20.6242 -1.30552 -1.79463 0.83929 49.6109 -26.2755 22.7463 -2.54253 -6.98555 0 -8.3093 54.8133 -13.3346 -2.56826 -7.05623 5.55112e-016 2.3265 -2.87856 6.95886 -0.16473 -0.45259 2.36315 0.00606296 0.00719137 -0.00231567 0 0 0 -1.93281 -2.12354 0.12108 0.02827 2.03559 -0.19338 10.2135 19.7349 0.351243 0.05672 2.04885 -0.04275 -2.89398 -5.18661 0.584613 0 0 0 -1.03803 -9.93931 -0.016297 -0.05417 1.74624 0.17202 2.39872 26.8829 -1.25873 0.10407 1.76136 -0.12397 0.12951 0.191321 -0.00801052 0 0 0 20.1417 -4.758 25.7601 3.36241 1.20089 -0.31121 -93.0256 10.1032 -3.71227 4.983 -1.77636e-015 0 -16.7732 14.318 -32.6724 3.48356 8.88178e-016 8.88178e-016 -3.13464 -1.08375 2.6103 0 0 0 -0.121028 -1.13371e-006 -1.14814 0.71526 1.77636e-015 0 -9.93923e-016 3.97569e-016 -3.18055e-015 0 0 0 -3.97569e-016 0 -0 0 0 0 -28.4134 -5.19123 -32.4478 -3.1366 1.37405 -0.40465 107.22 2.27927 5.70858 -5.2419 -8.88178e-016 -4.44089e-016 7.56871 17.8178 2.15363 -3.44417 0 0 7.82967 1.58783 7.7854 0 0 0 0.388195 -3.8339e-006 2.4941 -0.62253 0 0 -4.17485e-006 2.99803e-006 3.04112e-006 0 0 0 0 1.19271e-015 -0 
0.16852 16.686 0.00236867 -0.0463549 8.58009 -1.47767 0 0 0 -0.299681 5.35791 18.0368 1.36306 -1.79463 0.83929 -19.7683 -46.5515 3.91838 2.44811 -6.72613 -1.77636e-015 11.4717 40.6518 6.74899 2.5622 -7.03959 0 1.11033 -5.02388 -5.72322 0.15764 -0.43311 2.32255 -1.09332e-015 -2.5842e-015 -3.18055e-015 0 0 0 -8.85582 0.425549 -20.6242 -1.30552 -1.79463 0.83929 49.6412 -26.2778 22.7538 -2.54253 -6.98555 0 -8.31284 54.8099 -13.2912 -2.56826 -7.05623 3.33067e-016 2.2967 -2.83155 6.93749 -0.16473 -0.45259 2.36315 0.00606296 0.00719137 -0.00231567 0 0 0 -1.93281 -2.12354 0.12108 0.02827 2.03559 -0.19338 10.2185 19.6377 0.379895 0.05672 2.04885 -0.04275 -2.91528 -5.19588 0.600103 0 0 0 -1.05302 -9.95005 -0.0109114 -0.05417 1.74624 0.17202 2.37969 26.8725 -1.24929 0.10407 1.76136 -0.12397 0.169593 0.281547 -7.5829e-005 0 0 0 20.1332 -4.79571 25.7985 3.36241 1.20089 -0.31121 -93.0043 10.0682 -3.50145 4.983 0 2.22045e-016 -16.7149 14.4673 -32.7406 3.48356 -8.88178e-016 8.88178e-016 -3.09054 -1.09691 2.66731 0 0 0 -0.121028 -1.13371e-006 -1.14814 0.71526 -8.88178e-016 -8.88178e-016 5.96354e-016 1.98785e-015 -0 0 0 0 -1.98785e-016 3.97569e-016 -0 0 0 0 -28.5313 -5.25838 -32.4214 -3.1366 1.37405 -0.40465 107.198 2.15975 5.49794 -5.2419 -8.88178e-016 -4.44089e-016 7.56875 17.8334 2.14921 -3.44417 0 -2.22045e-016 7.85249 1.58783 7.78628 0 0 0 0.388195 -3.8339e-006 2.4941 -0.62253 -2.22045e-016 0 -4.17485e-006 2.99803e-006 3.04112e-006 0 0 0 -1.39149e-015 0 -1.59028e-015 
0.168668 16.686 -0.0083632 -0.059368 8.54592 -1.52297 0 0 0 -0.299681 5.35791 18.0368 1.36306 -1.79463 0.83929 -19.7431 -46.5527 3.92417 2.44811 -6.72613 -1.77636e-015 11.4831 40.6358 6.77911 2.5622 -7.03959 4.44089e-016 1.11129 -4.98932 -5.7111 0.15764 -0.43311 2.32255 -1.98785e-015 -7.95139e-016 -6.36111e-015 0 0 0 -8.85582 0.425549 -20.6242 -1.30552 -1.79463 0.83929 49.666 -26.2717 22.7544 -2.54253 -6.98555 -8.88178e-016 -8.31546 54.8076 -13.249 -2.56826 -7.05623 7.77156e-016 2.26599 -2.78443 6.91603 -0.16473 -0.45259 2.36315 0.00606296 0.00719137 -0.00231567 0 0 0 -1.93281 -2.12354 0.12108 0.02827 2.03559 -0.19338 10.2255 19.5502 0.408218 0.05672 2.04885 -0.04275 -2.93713 -5.20579 0.615975 0 0 0 -1.06655 -9.9653 -0.00578631 -0.05417 1.74624 0.17202 2.36228 26.8576 -1.24022 0.10407 1.76136 -0.12397 0.205638 0.364509 0.00680841 0 0 0 20.122 -4.83287 25.838 3.36241 1.20089 -0.31121 -92.9742 10.0247 -3.26453 4.983 -1.77636e-015 -4.44089e-016 -16.6534 14.6291 -32.8197 3.48356 0 -8.88178e-016 -3.05234 -1.10714 2.71235 0 0 0 -0.121028 -1.13371e-006 -1.14814 0.71526 0 -8.88178e-016 -1.98785e-016 0 -0 0 0 0 1.39149e-015 3.97569e-016 -3.18055e-015 0 0 0 -28.634 -5.32713 -32.3964 -3.1366 1.37405 -0.40465 107.162 2.03708 5.29492 -5.2419 0 4.44089e-016 7.5688 17.8548 2.14316 -3.44417 4.44089e-016 0 7.86336 1.58782 7.78805 0 0 0 0.388195 -3.8339e-006 2.4941 -0.62253 2.22045e-016 -4.44089e-016 -4.17485e-006 2.99803e-006 3.04112e-006 0 0 0 -8.94531e-016 0 -0 
0.168689 16.6858 -0.0197168 -0.0736426 8.49757 -1.56939 0 0 0 -0.299681 5.35791 18.0368 1.36306 -1.79463 0.83929 -19.707 -46.5447 3.93815 2.44811 -6.72613 0 11.4961 40.6236 6.80827 2.5622 -7.03959 0 1.11132 -4.95545 -5.69922 0.15764 -0.43311 2.32255 -1.39149e-015 -1.78906e-015 -1.27222e-014 0 0 0 -8.85582 0.425549 -20.6242 -1.30552 -1.79463 0.83929 49.6842 -26.2554 22.7469 -2.54253 -6.98555 8.88178e-016 -8.31706 54.8064 -13.208 -2.56826 -7.05623 -7.77156e-016 2.23417 -2.7372 6.89447 -0.16473 -0.45259 2.36315 0.00606296 0.00719137 -0.00231567 0 0 0 -1.93281 -2.12354 0.12108 0.02827 2.03559 -0.19338 10.2352 19.4763 0.436085 0.05672 2.04885 -0.04275 -2.95972 -5.2166 0.632398 0 0 0 -1.078 -9.98593 -0.00100894 -0.05417 1.74624 0.17202 2.34716 26.8372 -1.23168 0.10407 1.76136 -0.12397 0.236001 0.438118 0.0122428 0 0 0 20.1079 -4.86953 25.8794 3.36241 1.20089 -0.31121 -92.9335 9.97155 -2.99631 4.983 -1.77636e-015 0 -16.5884 14.8056 -32.9128 3.48356 0 -8.88178e-016 -3.02106 -1.11362 2.74224 0 0 0 -0.121028 -1.13371e-006 -1.14814 0.71526 8.88178e-016 0 -3.97569e-016 0 -3.18055e-015 0 0 0 0 3.97569e-016 -0 0 0 0 -28.7186 -5.39783 -32.3731 -3.1366 1.37405 -0.40465 107.112 1.91138 5.10222 -5.2419 0 4.44089e-016 7.56888 17.8819 2.13551 -3.44417 0 -2.22045e-016 7.86002 1.58781 7.79112 0 0 0 0.388195 -3.8339e-006 2.4941 -0.62253 4.44089e-016 0 -4.17485e-006 2.99803e-006 3.04112e-006 0 0 0 -6.95746e-016 0 -1.59028e-015 
0.168617 16.6855 -0.0315205 -0.0888783 8.43896 -1.61659 0 0 0 -0.299681 5.35791 18.0368 1.36306 -1.79463 0.83929 -19.6629 -46.5302 3.95804 2.44811 -6.72613 1.77636e-015 11.5104 40.614 6.83673 2.5622 -7.03959 0 1.11069 -4.92207 -5.68751 0.15764 -0.43311 2.32255 -8.94531e-016 -3.97569e-016 -1.59028e-014 0 0 0 -8.85582 0.425549 -20.6242 -1.30552 -1.79463 0.83929 49.6975 -26.2319 22.7335 -2.54253 -6.98555 8.88178e-016 -8.31791 54.8061 -13.1678 -2.56826 -7.05623 -2.77556e-016 2.20156 -2.68989 6.87284 -0.16473 -0.45259 2.36315 0.00606296 0.00719137 -0.00231567 0 0 0 -1.93281 -2.12354 0.12108 0.02827 2.03559 -0.19338 10.2467 19.4122 0.463626 0.05672 2.04885 -0.04275 -2.98285 -5.22804 0.649215 0 0 0 -1.08797 -10.0104 0.00351952 -0.05417 1.74624 0.17202 2.33367 26.813 -1.22354 0.10407 1.76136 -0.12397 0.262312 0.505007 0.0166405 0 0 0 20.0916 -4.90581 25.9221 3.36241 1.20089 -0.31121 -92.8849 9.91126 -2.70555 4.983 0 0 -16.5204 14.9925 -33.0162 3.48356 8.88178e-016 8.88178e-016 -2.99479 -1.11742 2.76123 0 0 0 -0.121028 -1.13371e-006 -1.14814 0.71526 0 -8.88178e-016 1.98785e-016 7.95139e-016 3.18055e-015 0 0 0 1.19271e-015 -1.19271e-015 -6.36111e-015 0 0 0 -28.7901 -5.46993 -32.3509 -3.1366 1.37405 -0.40465 107.049 1.78345 4.9169 -5.2419 8.88178e-016 0 7.56898 17.913 2.12669 -3.44417 0 0 7.84641 1.58779 7.7951 0 0 0 0.388195 -3.8339e-006 2.4941 -0.62253 -2.22045e-016 4.44089e-016 -4.17485e-006 2.99803e-006 3.04112e-006 0 0 0 -3.97569e-016 -3.97569e-016 3.18055e-015 
0.168455 16.685 -0.0437043 -0.104932 8.37211 -1.66411 0 0 0 -0.299681 5.35791 18.0368 1.36306 -1.79463 0.83929 -19.6123 -46.5107 3.98295 2.44811 -6.72613 0 11.5258 40.6068 6.86412 2.5622 -7.03959 0 1.10975 -4.88906 -5.6759 0.15764 -0.43311 2.32255 -3.97569e-016 -1.19271e-015 -9.54166e-015 0 0 0 -8.85582 0.425549 -20.6242 -1.30552 -1.79463 0.83929 49.7072 -26.2027 22.7156 -2.54253 -6.98555 0 -8.31805 54.8067 -13.1289 -2.56826 -7.05623 -2.77556e-016 2.16838 -2.64247 6.85115 -0.16473 -0.45259 2.36315 0.00606296 0.00719137 -0.00231567 0 0 0 -1.93281 -2.12354 0.12108 0.02827 2.03559 -0.19338 10.2593 19.352 0.491051 0.05672 2.04885 -0.04275 -3.00621 -5.23975 0.666161 0 0 0 -1.09739 -10.038 0.0079221 -0.05417 1.74624 0.17202 2.32078 26.7858 -1.2155 0.10407 1.76136 -0.12397 0.287068 0.5679 0.0205904 0 0 0 20.0733 -4.94149 25.9649 3.36241 1.20089 -0.31121 -92.8296 9.84451 -2.39749 4.983 0 0 -16.449 15.1878 -33.1261 3.48356 -8.88178e-016 -8.88178e-016 -2.9727 -1.11955 2.77328 0 0 0 -0.121028 -1.13371e-006 -1.14814 0.71526 8.88178e-016 0 -3.97569e-016 3.97569e-016 3.18055e-015 0 0 0 3.97569e-016 7.95139e-016 3.18055e-015 0 0 0 -28.8513 -5.54307 -32.3299 -3.1366 1.37405 -0.40465 106.978 1.65241 4.73513 -5.2419 0 -2.22045e-016 7.56911 17.9498 2.11629 -3.44417 0 0 7.82466 1.58778 7.7994 0 0 0 0.388195 -3.8339e-006 2.4941 -0.62253 6.66134e-016 0 -4.17485e-006 2.99803e-006 3.04112e-006 0 0 0 6.95746e-016 -3.97569e-016 -1.59028e-015 
